<svg xmlns="http://www.w3.org/2000/svg" aria-hidden="true">

  <!-- ICE CREAM SCOOP -->
  <symbol id="icon-scoop" viewBox="0 0 48 48">
    <circle cx="24" cy="18" r="13" fill="currentColor" opacity="0.15"/>
    <circle cx="24" cy="17" r="12" fill="currentColor"/>
    <ellipse cx="24" cy="28" rx="7" ry="3" fill="currentColor" opacity="0.35"/>
    <rect x="20" y="29" width="8" height="12" rx="4" fill="currentColor" opacity="0.6"/>
    <rect x="21" y="39" width="6" height="3" rx="1.5" fill="currentColor" opacity="0.4"/>
    <!-- shine -->
    <ellipse cx="19" cy="12" rx="3.5" ry="2" fill="white" opacity="0.35" transform="rotate(-20 19 12)"/>
  </symbol>

  <!-- ICE CREAM STICK / BAR -->
  <symbol id="icon-stick" viewBox="0 0 48 48">
    <rect x="10" y="6" width="28" height="26" rx="7" fill="currentColor"/>
    <rect x="10" y="6" width="28" height="14" rx="7" fill="currentColor" opacity="0.5"/>
    <rect x="20" y="30" width="8" height="14" rx="4" fill="currentColor" opacity="0.55"/>
    <ellipse cx="18" cy="13" rx="3" ry="2" fill="white" opacity="0.3" transform="rotate(-15 18 13)"/>
  </symbol>

  <!-- MILKSHAKE / GLASS -->
  <symbol id="icon-milkshake" viewBox="0 0 48 48">
    <rect x="13" y="14" width="22" height="26" rx="4" fill="currentColor" opacity="0.15"/>
    <path d="M13 14 Q11 8 14 6 H34 Q37 8 35 14Z" fill="currentColor" opacity="0.4"/>
    <path d="M14 14 L34 14 L31 40 Q30 42 24 42 Q18 42 17 40Z" fill="currentColor"/>
    <rect x="24" y="4" width="3" height="10" rx="1.5" fill="currentColor" opacity="0.5"/>
    <!-- straw -->
    <rect x="27" y="2" width="2.5" height="18" rx="1.25" fill="currentColor" opacity="0.6" transform="rotate(8 27 2)"/>
    <ellipse cx="20" cy="22" rx="3" ry="1.5" fill="white" opacity="0.2"/>
  </symbol>

  <!-- WAFFLE CONE / SUNDAE -->
  <symbol id="icon-sundae" viewBox="0 0 48 48">
    <circle cx="24" cy="14" r="10" fill="currentColor"/>
    <circle cx="18" cy="11" r="7" fill="currentColor" opacity="0.7"/>
    <circle cx="30" cy="12" r="7" fill="currentColor" opacity="0.8"/>
    <path d="M14 22 L24 44 L34 22 Z" fill="currentColor" opacity="0.6"/>
    <!-- waffle grid -->
    <line x1="19" y1="25" x2="24" y2="44" stroke="white" stroke-width="0.8" opacity="0.3"/>
    <line x1="24" y1="22" x2="29" y2="44" stroke="white" stroke-width="0.8" opacity="0.3"/>
    <line x1="15" y1="28" x2="33" y2="28" stroke="white" stroke-width="0.8" opacity="0.3"/>
    <line x1="16" y1="33" x2="32" y2="33" stroke="white" stroke-width="0.8" opacity="0.3"/>
    <ellipse cx="20" cy="10" rx="2.5" ry="1.5" fill="white" opacity="0.3" transform="rotate(-20 20 10)"/>
  </symbol>

  <!-- CAKE / ROLL CAKE -->
  <symbol id="icon-cake" viewBox="0 0 48 48">
    <ellipse cx="24" cy="16" rx="16" ry="6" fill="currentColor" opacity="0.35"/>
    <rect x="8" y="16" width="32" height="18" rx="2" fill="currentColor"/>
    <ellipse cx="24" cy="34" rx="16" ry="6" fill="currentColor" opacity="0.7"/>
    <ellipse cx="24" cy="16" rx="16" ry="6" fill="currentColor"/>
    <!-- candle -->
    <rect x="22" y="7" width="4" height="10" rx="2" fill="currentColor" opacity="0.5"/>
    <ellipse cx="24" cy="7" rx="2" ry="3" fill="#FFD700" opacity="0.9"/>
    <!-- spiral on top -->
    <path d="M14 16 Q24 12 34 16" stroke="white" stroke-width="1.5" fill="none" opacity="0.4"/>
  </symbol>

  <!-- STRAWBERRY -->
  <symbol id="icon-strawberry" viewBox="0 0 48 48">
    <path d="M24 8 C14 8 8 16 10 26 C12 36 20 43 24 43 C28 43 36 36 38 26 C40 16 34 8 24 8Z" fill="currentColor"/>
    <path d="M20 6 C20 6 18 2 24 2 C30 2 28 6 28 6" stroke="currentColor" stroke-width="2" fill="none" opacity="0.6"/>
    <path d="M24 8 L22 4 M24 8 L26 3 M24 8 L20 5" stroke="currentColor" stroke-width="1.5" opacity="0.5"/>
    <!-- seeds -->
    <ellipse cx="20" cy="18" rx="1" ry="1.5" fill="white" opacity="0.4" transform="rotate(-15 20 18)"/>
    <ellipse cx="28" cy="20" rx="1" ry="1.5" fill="white" opacity="0.4" transform="rotate(10 28 20)"/>
    <ellipse cx="22" cy="28" rx="1" ry="1.5" fill="white" opacity="0.4" transform="rotate(-5 22 28)"/>
    <ellipse cx="26" cy="33" rx="1" ry="1.5" fill="white" opacity="0.4" transform="rotate(15 26 33)"/>
  </symbol>

  <!-- MANGO -->
  <symbol id="icon-mango" viewBox="0 0 48 48">
    <path d="M24 6 C32 6 40 14 39 24 C38 34 32 43 24 43 C16 43 10 34 9 24 C8 14 16 6 24 6Z" fill="currentColor"/>
    <path d="M24 6 C24 6 26 2 28 3 C30 4 29 7 27 8" stroke="currentColor" stroke-width="1.5" fill="none" opacity="0.6"/>
    <ellipse cx="20" cy="20" rx="4" ry="6" fill="white" opacity="0.15" transform="rotate(-20 20 20)"/>
  </symbol>

  <!-- COCONUT -->
  <symbol id="icon-coconut" viewBox="0 0 48 48">
    <circle cx="24" cy="26" r="16" fill="currentColor"/>
    <path d="M24 10 C18 6 12 8 10 14" stroke="currentColor" stroke-width="2" fill="none" opacity="0.5"/>
    <path d="M24 10 C24 6 28 4 32 6" stroke="currentColor" stroke-width="2" fill="none" opacity="0.5"/>
    <!-- three dots on coconut -->
    <circle cx="20" cy="18" r="2" fill="currentColor" opacity="0.5"/>
    <circle cx="25" cy="16" r="2" fill="currentColor" opacity="0.5"/>
    <circle cx="23" cy="21" r="1.5" fill="currentColor" opacity="0.4"/>
    <ellipse cx="20" cy="28" rx="4" ry="5" fill="white" opacity="0.12" transform="rotate(-15 20 28)"/>
  </symbol>

  <!-- BLUEBERRY / BERRY -->
  <symbol id="icon-berry" viewBox="0 0 48 48">
    <circle cx="24" cy="28" r="12" fill="currentColor"/>
    <circle cx="16" cy="22" r="9" fill="currentColor" opacity="0.8"/>
    <circle cx="32" cy="22" r="9" fill="currentColor" opacity="0.85"/>
    <circle cx="24" cy="16" r="8" fill="currentColor" opacity="0.9"/>
    <path d="M20 8 C20 5 24 4 24 4 C24 4 28 5 28 8" stroke="currentColor" stroke-width="1.5" fill="none" opacity="0.5"/>
    <circle cx="21" cy="14" r="1.5" fill="white" opacity="0.3"/>
    <circle cx="30" cy="20" r="1.2" fill="white" opacity="0.25"/>
  </symbol>

  <!-- CHOCOLATE BAR -->
  <symbol id="icon-chocolate" viewBox="0 0 48 48">
    <rect x="6" y="10" width="36" height="28" rx="5" fill="currentColor"/>
    <!-- grid lines -->
    <line x1="18" y1="10" x2="18" y2="38" stroke="white" stroke-width="1.5" opacity="0.2"/>
    <line x1="30" y1="10" x2="30" y2="38" stroke="white" stroke-width="1.5" opacity="0.2"/>
    <line x1="6" y1="22" x2="42" y2="22" stroke="white" stroke-width="1.5" opacity="0.2"/>
    <!-- shine -->
    <rect x="9" y="13" width="6" height="3" rx="1.5" fill="white" opacity="0.2"/>
    <rect x="21" y="13" width="6" height="3" rx="1.5" fill="white" opacity="0.15"/>
  </symbol>

  <!-- COOKIE / BISCOFF -->
  <symbol id="icon-cookie" viewBox="0 0 48 48">
    <circle cx="24" cy="24" r="18" fill="currentColor"/>
    <circle cx="16" cy="18" r="2.5" fill="white" opacity="0.3"/>
    <circle cx="28" cy="16" r="2" fill="white" opacity="0.25"/>
    <circle cx="20" cy="28" r="2" fill="white" opacity="0.25"/>
    <circle cx="30" cy="28" r="2.5" fill="white" opacity="0.3"/>
    <circle cx="24" cy="22" r="1.5" fill="white" opacity="0.2"/>
    <!-- bite mark -->
    <circle cx="40" cy="10" r="8" fill="var(--cream, #fff8f0)"/>
  </symbol>

  <!-- WAFFLE -->
  <symbol id="icon-waffle" viewBox="0 0 48 48">
    <rect x="6" y="6" width="36" height="36" rx="6" fill="currentColor"/>
    <!-- waffle grid -->
    <line x1="6" y1="15" x2="42" y2="15" stroke="white" stroke-width="1.5" opacity="0.25"/>
    <line x1="6" y1="24" x2="42" y2="24" stroke="white" stroke-width="1.5" opacity="0.25"/>
    <line x1="6" y1="33" x2="42" y2="33" stroke="white" stroke-width="1.5" opacity="0.25"/>
    <line x1="15" y1="6" x2="15" y2="42" stroke="white" stroke-width="1.5" opacity="0.25"/>
    <line x1="24" y1="6" x2="24" y2="42" stroke="white" stroke-width="1.5" opacity="0.25"/>
    <line x1="33" y1="6" x2="33" y2="42" stroke="white" stroke-width="1.5" opacity="0.25"/>
    <circle cx="10.5" cy="10.5" r="2" fill="white" opacity="0.15"/>
    <circle cx="19.5" cy="19.5" r="2" fill="white" opacity="0.15"/>
  </symbol>

  <!-- CHEESECAKE SLICE -->
  <symbol id="icon-cheesecake" viewBox="0 0 48 48">
    <path d="M24 6 L42 38 L6 38 Z" fill="currentColor"/>
    <path d="M24 6 L42 38 L6 38 Z" fill="currentColor" opacity="0.3"/>
    <!-- layers -->
    <line x1="8" y1="32" x2="40" y2="32" stroke="white" stroke-width="2.5" opacity="0.3"/>
    <line x1="11" y1="36" x2="37" y2="36" stroke="white" stroke-width="2" opacity="0.2"/>
    <!-- topping drip -->
    <path d="M24 6 Q22 10 24 14 Q26 18 24 22" stroke="white" stroke-width="2" fill="none" opacity="0.25"/>
    <ellipse cx="22" cy="16" rx="3" ry="1.5" fill="white" opacity="0.2" transform="rotate(-20 22 16)"/>
  </symbol>

  <!-- FALOODA / FLOAT GLASS -->
  <symbol id="icon-falooda" viewBox="0 0 48 48">
    <path d="M12 10 L36 10 L32 42 Q31 44 24 44 Q17 44 16 42 Z" fill="currentColor" opacity="0.15"/>
    <path d="M12 10 L36 10 L32 42 Q31 44 24 44 Q17 44 16 42 Z" fill="currentColor"/>
    <!-- layers inside -->
    <path d="M13 20 L35 20 L34 24 L14 24 Z" fill="white" opacity="0.2"/>
    <path d="M15 30 L33 30 L32 34 L16 34 Z" fill="white" opacity="0.15"/>
    <!-- straw -->
    <rect x="27" y="4" width="3" height="22" rx="1.5" fill="currentColor" opacity="0.55" transform="rotate(5 27 4)"/>
    <!-- rim -->
    <rect x="10" y="8" width="28" height="5" rx="2.5" fill="currentColor" opacity="0.6"/>
  </symbol>

  <!-- BROWNIE -->
  <symbol id="icon-brownie" viewBox="0 0 48 48">
    <rect x="6" y="14" width="36" height="22" rx="5" fill="currentColor"/>
    <rect x="6" y="14" width="36" height="9" rx="5" fill="currentColor" opacity="0.4"/>
    <!-- cracks -->
    <path d="M15 18 Q18 22 22 20 Q26 18 28 22" stroke="white" stroke-width="1" fill="none" opacity="0.2"/>
    <path d="M26 24 Q29 28 32 26" stroke="white" stroke-width="1" fill="none" opacity="0.2"/>
    <rect x="9" y="17" width="8" height="3" rx="1.5" fill="white" opacity="0.15"/>
  </symbol>

  <!-- CROISSANT -->
  <symbol id="icon-croissant" viewBox="0 0 48 48">
    <path d="M24 10 C14 8 6 16 8 26 C10 36 20 42 26 40 C32 38 28 30 30 24 C32 18 38 16 36 10 C34 4 30 8 24 10Z" fill="currentColor"/>
    <path d="M8 26 C8 26 12 28 14 26 C16 24 14 20 16 18" stroke="white" stroke-width="1.5" fill="none" opacity="0.25"/>
    <path d="M36 10 C36 10 32 14 30 14" stroke="white" stroke-width="1.5" fill="none" opacity="0.2"/>
    <ellipse cx="18" cy="22" rx="4" ry="2.5" fill="white" opacity="0.15" transform="rotate(-30 18 22)"/>
  </symbol>

  <!-- PUFF PASTRY -->
  <symbol id="icon-puff" viewBox="0 0 48 48">
    <rect x="4" y="18" width="40" height="16" rx="8" fill="currentColor"/>
    <ellipse cx="24" cy="18" rx="20" ry="8" fill="currentColor" opacity="0.7"/>
    <ellipse cx="24" cy="18" rx="14" ry="5" fill="currentColor" opacity="0.4"/>
    <ellipse cx="18" cy="16" rx="4" ry="2" fill="white" opacity="0.2"/>
  </symbol>

  <!-- LEAF / VEG -->
  <symbol id="icon-leaf" viewBox="0 0 48 48">
    <path d="M24 6 C24 6 8 10 8 26 C8 36 16 42 24 42 C32 42 40 36 40 26 C40 10 24 6 24 6Z" fill="currentColor"/>
    <path d="M24 42 L24 14" stroke="white" stroke-width="2" opacity="0.4"/>
    <path d="M24 22 L16 16" stroke="white" stroke-width="1.5" opacity="0.3"/>
    <path d="M24 28 L32 20" stroke="white" stroke-width="1.5" opacity="0.3"/>
    <path d="M24 34 L18 28" stroke="white" stroke-width="1.5" opacity="0.25"/>
  </symbol>

  <!-- STAR (rating) -->
  <symbol id="icon-star" viewBox="0 0 48 48">
    <path d="M24 6 L28.5 18 L42 18 L31.5 26 L35.5 39 L24 31 L12.5 39 L16.5 26 L6 18 L19.5 18 Z" fill="currentColor"/>
  </symbol>

  <!-- STAR OUTLINE -->
  <symbol id="icon-star-outline" viewBox="0 0 48 48">
    <path d="M24 6 L28.5 18 L42 18 L31.5 26 L35.5 39 L24 31 L12.5 39 L16.5 26 L6 18 L19.5 18 Z"
          fill="none" stroke="currentColor" stroke-width="2.5" stroke-linejoin="round"/>
  </symbol>

  <!-- PHONE -->
  <symbol id="icon-phone" viewBox="0 0 48 48">
    <path d="M12 6 H20 L24 16 L19 19 C21 23 25 27 29 29 L32 24 L42 28 V36 C42 36 38 44 28 40 C18 36 8 26 6 16 C4 8 12 6 12 6Z" fill="currentColor"/>
  </symbol>

  <!-- LOCATION PIN -->
  <symbol id="icon-location" viewBox="0 0 48 48">
    <path d="M24 4 C16 4 10 10 10 18 C10 28 24 44 24 44 C24 44 38 28 38 18 C38 10 32 4 24 4Z" fill="currentColor"/>
    <circle cx="24" cy="18" r="5" fill="white" opacity="0.5"/>
  </symbol>

  <!-- MAIL / ENVELOPE -->
  <symbol id="icon-mail" viewBox="0 0 48 48">
    <rect x="4" y="10" width="40" height="28" rx="5" fill="currentColor"/>
    <path d="M4 12 L24 26 L44 12" stroke="white" stroke-width="2.5" fill="none" opacity="0.5"/>
  </symbol>

  <!-- CLOCK -->
  <symbol id="icon-clock" viewBox="0 0 48 48">
    <circle cx="24" cy="24" r="18" fill="currentColor"/>
    <circle cx="24" cy="24" r="15" fill="white" opacity="0.15"/>
    <line x1="24" y1="24" x2="24" y2="13" stroke="white" stroke-width="2.5" stroke-linecap="round"/>
    <line x1="24" y1="24" x2="32" y2="28" stroke="white" stroke-width="2" stroke-linecap="round"/>
    <circle cx="24" cy="24" r="2" fill="white"/>
  </symbol>

  <!-- TROPHY / AWARD -->
  <symbol id="icon-trophy" viewBox="0 0 48 48">
    <rect x="18" y="34" width="12" height="6" rx="2" fill="currentColor" opacity="0.6"/>
    <rect x="14" y="40" width="20" height="4" rx="2" fill="currentColor" opacity="0.5"/>
    <path d="M12 6 H36 V24 C36 32 28 36 24 36 C20 36 12 32 12 24 Z" fill="currentColor"/>
    <path d="M12 10 C12 10 6 10 6 16 C6 22 12 22 12 22" fill="currentColor" opacity="0.5"/>
    <path d="M36 10 C36 10 42 10 42 16 C42 22 36 22 36 22" fill="currentColor" opacity="0.5"/>
    <path d="M18 18 L22 22 L30 14" stroke="white" stroke-width="2.5" fill="none" stroke-linecap="round" opacity="0.5"/>
  </symbol>

  <!-- CALENDAR / EVENT -->
  <symbol id="icon-calendar" viewBox="0 0 48 48">
    <rect x="4" y="8" width="40" height="34" rx="5" fill="currentColor"/>
    <rect x="4" y="8" width="40" height="13" rx="5" fill="currentColor" opacity="0.5"/>
    <rect x="4" y="16" width="40" height="5" fill="currentColor" opacity="0.5"/>
    <rect x="14" y="4" width="4" height="9" rx="2" fill="currentColor" opacity="0.7"/>
    <rect x="30" y="4" width="4" height="9" rx="2" fill="currentColor" opacity="0.7"/>
    <!-- date dots -->
    <circle cx="14" cy="30" r="2.5" fill="white" opacity="0.4"/>
    <circle cx="24" cy="30" r="2.5" fill="white" opacity="0.4"/>
    <circle cx="34" cy="30" r="2.5" fill="white" opacity="0.4"/>
    <circle cx="14" cy="38" r="2.5" fill="white" opacity="0.3"/>
    <circle cx="24" cy="38" r="2.5" fill="white" opacity="0.3"/>
  </symbol>

  <!-- PEOPLE / GROUP -->
  <symbol id="icon-people" viewBox="0 0 48 48">
    <circle cx="16" cy="14" r="7" fill="currentColor" opacity="0.7"/>
    <circle cx="32" cy="14" r="7" fill="currentColor" opacity="0.8"/>
    <path d="M2 38 C2 30 8 24 16 24 C21 24 25 27 27 31 C29 27 33 24 38 24 C44 24 50 30 50 38" fill="currentColor" opacity="0.5"/>
    <path d="M4 40 C4 32 9 26 16 26 C23 26 28 32 28 40" fill="currentColor" opacity="0.7"/>
  </symbol>

  <!-- MILK BOTTLE / COW MILK -->
  <symbol id="icon-milk" viewBox="0 0 48 48">
    <path d="M18 6 L16 12 C10 14 8 18 8 22 L8 38 C8 40 10 42 12 42 H36 C38 42 40 40 40 38 L40 22 C40 18 38 14 32 12 L30 6 Z" fill="currentColor"/>
    <path d="M18 6 H30 V8 H18 Z" fill="currentColor" opacity="0.5"/>
    <!-- label -->
    <rect x="14" y="24" width="20" height="12" rx="3" fill="white" opacity="0.2"/>
    <line x1="17" y1="28" x2="31" y2="28" stroke="white" stroke-width="1.5" opacity="0.3"/>
    <line x1="17" y1="32" x2="27" y2="32" stroke="white" stroke-width="1.5" opacity="0.25"/>
    <!-- shine -->
    <ellipse cx="16" cy="20" rx="2.5" ry="4" fill="white" opacity="0.2" transform="rotate(-10 16 20)"/>
  </symbol>

  <!-- HEART -->
  <symbol id="icon-heart" viewBox="0 0 48 48">
    <path d="M24 40 C24 40 6 28 6 16 C6 10 11 6 17 6 C20 6 23 8 24 10 C25 8 28 6 31 6 C37 6 42 10 42 16 C42 28 24 40 24 40Z" fill="currentColor"/>
  </symbol>

  <!-- CHECK / VERIFIED -->
  <symbol id="icon-check" viewBox="0 0 48 48">
    <circle cx="24" cy="24" r="18" fill="currentColor"/>
    <path d="M14 24 L21 31 L34 17" stroke="white" stroke-width="3" fill="none" stroke-linecap="round" stroke-linejoin="round"/>
  </symbol>

  <!-- SEND / ARROW -->
  <symbol id="icon-send" viewBox="0 0 48 48">
    <path d="M6 6 L42 22 L6 38 L12 24 Z" fill="currentColor"/>
    <line x1="12" y1="24" x2="42" y2="22" stroke="white" stroke-width="2" opacity="0.3"/>
  </symbol>

  <!-- ARROW RIGHT -->
  <symbol id="icon-arrow-right" viewBox="0 0 48 48">
    <path d="M8 24 H40 M28 12 L40 24 L28 36" stroke="currentColor" stroke-width="3" fill="none" stroke-linecap="round" stroke-linejoin="round"/>
  </symbol>

  <!-- SCROLL DOWN -->
  <symbol id="icon-scroll-down" viewBox="0 0 48 48">
    <rect x="18" y="6" width="12" height="24" rx="6" fill="none" stroke="currentColor" stroke-width="2.5"/>
    <rect x="22" y="10" width="4" height="6" rx="2" fill="currentColor" opacity="0.6"/>
    <path d="M16 38 L24 44 L32 38" stroke="currentColor" stroke-width="2.5" fill="none" stroke-linecap="round"/>
  </symbol>

  <!-- HAMBURGER MENU -->
  <symbol id="icon-menu" viewBox="0 0 48 48">
    <rect x="6" y="13" width="36" height="3.5" rx="1.75" fill="currentColor"/>
    <rect x="6" y="22.25" width="36" height="3.5" rx="1.75" fill="currentColor"/>
    <rect x="6" y="31.5" width="36" height="3.5" rx="1.75" fill="currentColor"/>
  </symbol>

  <!-- CLOSE X -->
  <symbol id="icon-close" viewBox="0 0 48 48">
    <line x1="10" y1="10" x2="38" y2="38" stroke="currentColor" stroke-width="3.5" stroke-linecap="round"/>
    <line x1="38" y1="10" x2="10" y2="38" stroke="currentColor" stroke-width="3.5" stroke-linecap="round"/>
  </symbol>

  <!-- INSTAGRAM -->
  <symbol id="icon-instagram" viewBox="0 0 48 48">
    <rect x="6" y="6" width="36" height="36" rx="10" fill="none" stroke="currentColor" stroke-width="3"/>
    <circle cx="24" cy="24" r="8" fill="none" stroke="currentColor" stroke-width="3"/>
    <circle cx="36" cy="12" r="2.5" fill="currentColor"/>
  </symbol>

  <!-- FACEBOOK -->
  <symbol id="icon-facebook" viewBox="0 0 48 48">
    <circle cx="24" cy="24" r="18" fill="currentColor"/>
    <path d="M26 14 H30 V20 H26 V42 H20 V20 H16 V14 H20 V12 C20 8 22 6 26 6 H30 V12 H27 C26 12 26 12.5 26 13 Z" fill="white"/>
  </symbol>

  <!-- WHATSAPP -->
  <symbol id="icon-whatsapp" viewBox="0 0 48 48">
    <circle cx="24" cy="24" r="18" fill="currentColor"/>
    <path d="M31.5 27.2c-.4-.2-2.5-1.2-2.9-1.4-.4-.1-.7-.2-.9.2-.3.4-1.1 1.4-1.3 1.6-.2.3-.5.3-.9.1-.4-.2-1.8-.7-3.4-2.1-1.3-1.1-2.1-2.5-2.4-2.9-.2-.4 0-.6.2-.8.2-.2.4-.5.6-.7.2-.2.3-.4.4-.7.1-.3.1-.5 0-.7-.1-.2-1-2.3-1.3-3.1-.3-.8-.6-.7-.9-.7h-.8c-.3 0-.7.1-1.1.5-.4.4-1.5 1.4-1.5 3.5 0 2.1 1.5 4.1 1.7 4.4.2.3 3 4.6 7.2 6.4 1 .4 1.8.7 2.4.9 1 .3 1.9.3 2.7.2.8-.1 2.5-.1 2.9-1.9.4-1.8.4-1.8 0-2Z" fill="white"/>
  </symbol>

  <!-- QUOTE MARK -->
  <symbol id="icon-quote" viewBox="0 0 48 48">
    <path d="M6 30 C6 22 10 16 18 14 L20 18 C16 19 14 22 14 24 H20 V36 H6 Z" fill="currentColor"/>
    <path d="M26 30 C26 22 30 16 38 14 L40 18 C36 19 34 22 34 24 H40 V36 H26 Z" fill="currentColor"/>
  </symbol>

  <!-- VEGATARIAN DOT -->
  <symbol id="icon-veg" viewBox="0 0 48 48">
    <rect x="6" y="6" width="36" height="36" rx="5" fill="none" stroke="currentColor" stroke-width="3"/>
    <circle cx="24" cy="24" r="9" fill="currentColor"/>
  </symbol>

  <!-- AWARD BADGE -->
  <symbol id="icon-badge" viewBox="0 0 48 48">
    <polygon points="24,4 29,16 42,16 32,24 36,38 24,30 12,38 16,24 6,16 19,16" fill="currentColor"/>
    <polygon points="24,10 27.5,19 37,19 29.5,24.5 32.5,34 24,28 15.5,34 18.5,24.5 11,19 20.5,19" fill="white" opacity="0.2"/>
  </symbol>
  
  <!-- HOME -->
  <symbol id="icon-home" viewBox="0 0 48 48">
    <path d="M24 6 L6 22 H12 V40 H36 V22 H42 Z" fill="currentColor"/>
    <rect x="21" y="28" width="6" height="12" fill="white" opacity="0.3"/>
  </symbol>

  <!-- CHEVRON LEFT -->
  <symbol id="icon-chevron-left" viewBox="0 0 24 24">
    <path d="M15 6l-6 6 6 6" fill="none" stroke="currentColor" stroke-width="2.2" stroke-linecap="round" stroke-linejoin="round"/>
  </symbol>

  <!-- CHEVRON RIGHT -->
  <symbol id="icon-chevron-right" viewBox="0 0 24 24">
    <path d="M9 6l6 6-6 6" fill="none" stroke="currentColor" stroke-width="2.2" stroke-linecap="round" stroke-linejoin="round"/>
  </symbol>

  <!-- SPARKLE -->
  <symbol id="icon-sparkle" viewBox="0 0 48 48">
    <path d="M24 4l2.5 9.5L36 16l-9.5 2.5L24 28l-2.5-9.5L12 16l9.5-2.5L24 4z" fill="currentColor"/>
    <path d="M38 30l1.5 5.5L45 37l-5.5 1.5L38 44l-1.5-5.5L31 37l5.5-1.5L38 30z" fill="currentColor" opacity="0.65"/>
    <path d="M10 32l1 4 4 1-4 1-1 4-1-4-4-1 4-1 1-4z" fill="currentColor" opacity="0.5"/>
  </symbol>

</svg>
